<?xml version="1.0" encoding="UTF-8"?>
<!DOCTYPE svg PUBLIC "-//W3C//DTD SVG 1.1//EN" "http://www.w3.org/Graphics/SVG/1.1/DTD/svg11.dtd">
<svg width="325mm" height="168mm" viewBox="0 0 32500 16800" version="1.1" xmlns="http://www.w3.org/2000/svg" xmlns:xlink="http://www.w3.org/1999/xlink" stroke-width="28.222" stroke-linejoin="round" xml:space="preserve">
 <path fill="rgb(255,255,255)" stroke="none" d="M 16208,16801 L -13,16801 -13,-13 32429,-13 32429,16801 16208,16801 Z"/>
 <path fill="none" stroke="rgb(179,179,179)" stroke-linejoin="round" d="M 14383,15066 L 2486,15066 2486,3058 26280,3058 26280,15066 14383,15066 Z"/>
 <path fill="none" stroke="rgb(179,179,179)" stroke-linejoin="round" d="M 26280,15065 L 2486,15065"/>
 <path fill="none" stroke="rgb(179,179,179)" stroke-linejoin="round" d="M 26280,13349 L 2486,13349"/>
 <path fill="none" stroke="rgb(179,179,179)" stroke-linejoin="round" d="M 26280,11633 L 2486,11633"/>
 <path fill="none" stroke="rgb(179,179,179)" stroke-linejoin="round" d="M 26280,9918 L 2486,9918"/>
 <path fill="none" stroke="rgb(179,179,179)" stroke-linejoin="round" d="M 26280,8203 L 2486,8203"/>
 <path fill="none" stroke="rgb(179,179,179)" stroke-linejoin="round" d="M 26280,6488 L 2486,6488"/>
 <path fill="none" stroke="rgb(179,179,179)" stroke-linejoin="round" d="M 26280,4772 L 2486,4772"/>
 <path fill="none" stroke="rgb(179,179,179)" stroke-linejoin="round" d="M 26280,3056 L 2486,3056"/>
 <path fill="none" stroke="rgb(179,179,179)" stroke-linejoin="round" d="M 2336,15065 L 2486,15065"/>
 <path fill="none" stroke="rgb(179,179,179)" stroke-linejoin="round" d="M 2336,15065 L 2486,15065"/>
 <path fill="none" stroke="rgb(179,179,179)" stroke-linejoin="round" d="M 2336,13349 L 2486,13349"/>
 <path fill="none" stroke="rgb(179,179,179)" stroke-linejoin="round" d="M 2336,13349 L 2486,13349"/>
 <path fill="none" stroke="rgb(179,179,179)" stroke-linejoin="round" d="M 2336,11633 L 2486,11633"/>
 <path fill="none" stroke="rgb(179,179,179)" stroke-linejoin="round" d="M 2336,11633 L 2486,11633"/>
 <path fill="none" stroke="rgb(179,179,179)" stroke-linejoin="round" d="M 2336,9918 L 2486,9918"/>
 <path fill="none" stroke="rgb(179,179,179)" stroke-linejoin="round" d="M 2336,9918 L 2486,9918"/>
 <path fill="none" stroke="rgb(179,179,179)" stroke-linejoin="round" d="M 2336,8203 L 2486,8203"/>
 <path fill="none" stroke="rgb(179,179,179)" stroke-linejoin="round" d="M 2336,8203 L 2486,8203"/>
 <path fill="none" stroke="rgb(179,179,179)" stroke-linejoin="round" d="M 2336,6488 L 2486,6488"/>
 <path fill="none" stroke="rgb(179,179,179)" stroke-linejoin="round" d="M 2336,6488 L 2486,6488"/>
 <path fill="none" stroke="rgb(179,179,179)" stroke-linejoin="round" d="M 2336,4772 L 2486,4772"/>
 <path fill="none" stroke="rgb(179,179,179)" stroke-linejoin="round" d="M 2336,4772 L 2486,4772"/>
 <path fill="none" stroke="rgb(179,179,179)" stroke-linejoin="round" d="M 2336,3056 L 2486,3056"/>
 <path fill="none" stroke="rgb(179,179,179)" stroke-linejoin="round" d="M 2336,3056 L 2486,3056"/>
 <path fill="none" stroke="rgb(179,179,179)" stroke-linejoin="round" d="M 2486,15065 L 2486,3056"/>
 <path fill="none" stroke="rgb(179,179,179)" stroke-linejoin="round" d="M 26430,15065 L 26280,15065"/>
 <path fill="none" stroke="rgb(179,179,179)" stroke-linejoin="round" d="M 26430,15065 L 26280,15065"/>
 <path fill="none" stroke="rgb(179,179,179)" stroke-linejoin="round" d="M 26430,13063 L 26280,13063"/>
 <path fill="none" stroke="rgb(179,179,179)" stroke-linejoin="round" d="M 26430,13063 L 26280,13063"/>
 <path fill="none" stroke="rgb(179,179,179)" stroke-linejoin="round" d="M 26430,11062 L 26280,11062"/>
 <path fill="none" stroke="rgb(179,179,179)" stroke-linejoin="round" d="M 26430,11062 L 26280,11062"/>
 <path fill="none" stroke="rgb(179,179,179)" stroke-linejoin="round" d="M 26430,9060 L 26280,9060"/>
 <path fill="none" stroke="rgb(179,179,179)" stroke-linejoin="round" d="M 26430,9060 L 26280,9060"/>
 <path fill="none" stroke="rgb(179,179,179)" stroke-linejoin="round" d="M 26430,7059 L 26280,7059"/>
 <path fill="none" stroke="rgb(179,179,179)" stroke-linejoin="round" d="M 26430,7059 L 26280,7059"/>
 <path fill="none" stroke="rgb(179,179,179)" stroke-linejoin="round" d="M 26430,5058 L 26280,5058"/>
 <path fill="none" stroke="rgb(179,179,179)" stroke-linejoin="round" d="M 26430,5058 L 26280,5058"/>
 <path fill="none" stroke="rgb(179,179,179)" stroke-linejoin="round" d="M 26430,3056 L 26280,3056"/>
 <path fill="none" stroke="rgb(179,179,179)" stroke-linejoin="round" d="M 26430,3056 L 26280,3056"/>
 <path fill="none" stroke="rgb(179,179,179)" stroke-linejoin="round" d="M 26280,15065 L 26280,3056"/>
 <path fill="none" stroke="rgb(0,69,134)" stroke-width="80" stroke-linejoin="round" d="M 2486,5126 L 2702,11967 2918,12427 3134,12504 3351,12398 3567,12555 3783,12955 4000,12868 4216,12697 4432,12577 4649,13190 4865,12833 5081,12929 5298,13261 5514,12904 5730,13223 5947,13048 6163,13074 6379,13221 6596,13633 6812,13170 7028,13435 7245,13021 7461,13094 7677,13333 7893,13473 8110,13774 8326,13317 8542,13232 8759,13649 8975,13651 9191,13500 9408,13461 9624,13458 9840,13768 10057,13765 10273,13347 10489,13567 10706,13506 10922,13529 11138,13551 11355,13392 11571,13377 11787,13945 12004,13928 12220,13510 12436,13469 12652,13597 12869,13796 13085,13738 13301,13642 13518,14059 13734,13645 13950,13624 14167,14030 14383,13783 14599,13921 14816,13391 15032,13815 15248,13847 15465,13878 15681,13662 15897,13793 16114,13714 16329,13743 16545,13592 16762,13964 16978,14015 17194,13941 17410,13845 17627,13710 17843,13657 18059,13875 18276,13834 18492,13946 18708,13773 18925,13783 19141,13950 19357,13883 19574,14037 19790,13656 20006,13693 20223,13886 20439,13802 20655,13444 20872,14108 21088,14123 21304,13970 21521,13744 21737,13960 21953,13894 22169,14014 22386,13908 22602,13739 22818,13838 23035,13925 23251,13808 23467,13761 23684,14094 23900,13910 24116,13787 24333,14207 24549,13972 24765,13923 24982,13956 25198,13871 25414,13641 25631,14023 25847,13887 26063,14037 26280,14157"/>
 <path fill="none" stroke="rgb(255,66,14)" stroke-width="80" stroke-linejoin="round" d="M 2486,14788 L 2702,13232 2918,12678 3134,11478 3351,11135 3567,10094 3783,9962 4000,9672 4216,9263 4432,8657 4649,8551 4865,8617 5081,8315 5298,9052 5514,8157 5730,8472 5947,8538 6163,7603 6379,8315 6596,7748 6812,7853 7028,7655 7245,6996 7461,7445 7677,7431 7893,7735 8110,7141 8326,7550 8542,6904 8759,6891 8975,7089 9191,7286 9408,7840 9624,6864 9840,6785 10057,6917 10273,6522 10489,5915 10706,6297 10922,5770 11138,6614 11355,5744 11571,6311 11787,5585 12004,5875 12220,5572 12436,6495 12652,5559 12869,5585 13085,5902 13301,6139 13518,6100 13734,5889 13950,5691 14167,5810 14383,5902 14599,5730 14816,5361 15032,6469 15248,5651 15465,5796 15681,5651 15897,6073 16114,5533 16329,5862 16545,5203 16762,5691 16978,5295 17194,5572 17410,6073 17627,5572 17843,6192 18059,5374 18276,5902 18492,5585 18708,5427 18925,5612 19141,5098 19357,5111 19574,5388 19790,5810 20006,5994 20223,5229 20439,4966 20655,5704 20872,6192 21088,5612 21304,6034 21521,6126 21737,6337 21953,5401 22169,5309 22386,5098 22602,5467 22818,5374 23035,5454 23251,5519 23467,4979 23684,5190 23900,5216 24116,5018 24333,5282 24549,5493 24765,5414 24982,4939 25198,4900 25414,5493 25631,6337 25847,4821 26063,5374 26280,5243"/>
 <text class="SVGTextShape"><tspan class="TextParagraph" font-family="Liberation Sans, sans-serif" font-size="353px" font-weight="400"><tspan class="TextPosition" x="2051" y="15186"><tspan fill="rgb(0,0,0)" stroke="none" style="white-space: pre">0</tspan></tspan></tspan></text>
 <text class="SVGTextShape"><tspan class="TextParagraph" font-family="Liberation Sans, sans-serif" font-size="353px" font-weight="400"><tspan class="TextPosition" x="2051" y="13470"><tspan fill="rgb(0,0,0)" stroke="none" style="white-space: pre">2</tspan></tspan></tspan></text>
 <text class="SVGTextShape"><tspan class="TextParagraph" font-family="Liberation Sans, sans-serif" font-size="353px" font-weight="400"><tspan class="TextPosition" x="2051" y="11754"><tspan fill="rgb(0,0,0)" stroke="none" style="white-space: pre">4</tspan></tspan></tspan></text>
 <text class="SVGTextShape"><tspan class="TextParagraph" font-family="Liberation Sans, sans-serif" font-size="353px" font-weight="400"><tspan class="TextPosition" x="2051" y="10039"><tspan fill="rgb(0,0,0)" stroke="none" style="white-space: pre">6</tspan></tspan></tspan></text>
 <text class="SVGTextShape"><tspan class="TextParagraph" font-family="Liberation Sans, sans-serif" font-size="353px" font-weight="400"><tspan class="TextPosition" x="2051" y="8323"><tspan fill="rgb(0,0,0)" stroke="none" style="white-space: pre">8</tspan></tspan></tspan></text>
 <text class="SVGTextShape"><tspan class="TextParagraph" font-family="Liberation Sans, sans-serif" font-size="353px" font-weight="400"><tspan class="TextPosition" x="1866" y="6608"><tspan fill="rgb(0,0,0)" stroke="none" style="white-space: pre">10</tspan></tspan></tspan></text>
 <text class="SVGTextShape"><tspan class="TextParagraph" font-family="Liberation Sans, sans-serif" font-size="353px" font-weight="400"><tspan class="TextPosition" x="1866" y="4892"><tspan fill="rgb(0,0,0)" stroke="none" style="white-space: pre">12</tspan></tspan></tspan></text>
 <text class="SVGTextShape"><tspan class="TextParagraph" font-family="Liberation Sans, sans-serif" font-size="353px" font-weight="400"><tspan class="TextPosition" x="1866" y="3176"><tspan fill="rgb(0,0,0)" stroke="none" style="white-space: pre">14</tspan></tspan></tspan></text>
 <text class="SVGTextShape"><tspan class="TextParagraph" font-family="Liberation Sans, sans-serif" font-size="353px" font-weight="400"><tspan class="TextPosition" x="26530" y="15186"><tspan fill="rgb(0,0,0)" stroke="none" style="white-space: pre">0</tspan></tspan></tspan></text>
 <text class="SVGTextShape"><tspan class="TextParagraph" font-family="Liberation Sans, sans-serif" font-size="353px" font-weight="400"><tspan class="TextPosition" x="26530" y="13184"><tspan fill="rgb(0,0,0)" stroke="none" style="white-space: pre">0.1</tspan></tspan></tspan></text>
 <text class="SVGTextShape"><tspan class="TextParagraph" font-family="Liberation Sans, sans-serif" font-size="353px" font-weight="400"><tspan class="TextPosition" x="26530" y="11183"><tspan fill="rgb(0,0,0)" stroke="none" style="white-space: pre">0.2</tspan></tspan></tspan></text>
 <text class="SVGTextShape"><tspan class="TextParagraph" font-family="Liberation Sans, sans-serif" font-size="353px" font-weight="400"><tspan class="TextPosition" x="26530" y="9181"><tspan fill="rgb(0,0,0)" stroke="none" style="white-space: pre">0.3</tspan></tspan></tspan></text>
 <text class="SVGTextShape"><tspan class="TextParagraph" font-family="Liberation Sans, sans-serif" font-size="353px" font-weight="400"><tspan class="TextPosition" x="26530" y="7179"><tspan fill="rgb(0,0,0)" stroke="none" style="white-space: pre">0.4</tspan></tspan></tspan></text>
 <text class="SVGTextShape"><tspan class="TextParagraph" font-family="Liberation Sans, sans-serif" font-size="353px" font-weight="400"><tspan class="TextPosition" x="26530" y="5178"><tspan fill="rgb(0,0,0)" stroke="none" style="white-space: pre">0.5</tspan></tspan></tspan></text>
 <text class="SVGTextShape"><tspan class="TextParagraph" font-family="Liberation Sans, sans-serif" font-size="353px" font-weight="400"><tspan class="TextPosition" x="26530" y="3176"><tspan fill="rgb(0,0,0)" stroke="none" style="white-space: pre">0.6</tspan></tspan></tspan></text>
 <text class="SVGTextShape"><tspan class="TextParagraph" font-family="Liberation Sans, sans-serif" font-size="564px" font-weight="400"><tspan class="TextPosition" x="15176" y="1131"><tspan fill="rgb(0,0,0)" stroke="none" style="white-space: pre">Training</tspan></tspan></tspan></text>
 <text class="SVGTextShape"><tspan class="TextParagraph" font-family="Liberation Sans, sans-serif" font-size="459px" font-weight="400"><tspan class="TextPosition" x="15427" y="2278"><tspan fill="rgb(0,0,0)" stroke="none" style="white-space: pre">(T=100)</tspan></tspan></tspan></text>
 <path fill="none" stroke="rgb(0,69,134)" stroke-width="80" stroke-linejoin="round" d="M 29235,8091 L 30035,8091"/>
 <path fill="none" stroke="rgb(255,66,14)" stroke-width="80" stroke-linejoin="round" d="M 29235,8694 L 30035,8694"/>
 <text class="SVGTextShape"><tspan class="TextParagraph" font-family="Liberation Sans, sans-serif" font-size="459px" font-weight="400"><tspan class="TextPosition" x="30135" y="8237"><tspan fill="rgb(0,0,0)" stroke="none" style="white-space: pre">loss_train</tspan></tspan></tspan></text>
 <text class="SVGTextShape"><tspan class="TextParagraph" font-family="Liberation Sans, sans-serif" font-size="459px" font-weight="400"><tspan class="TextPosition" x="30135" y="8840"><tspan fill="rgb(0,0,0)" stroke="none" style="white-space: pre">acc_test</tspan></tspan></tspan></text>
 <text class="SVGTextShape"><tspan class="TextParagraph" font-family="Liberation Sans, sans-serif" font-size="459px" font-weight="400"><tspan class="TextPosition" x="14013" y="16138"><tspan fill="rgb(0,0,0)" stroke="none" style="white-space: pre">step</tspan></tspan></tspan></text>
 <text class="SVGTextShape" transform="rotate(-90 973 9471)"><tspan class="TextParagraph" font-family="Liberation Sans, sans-serif" font-size="459px" font-weight="400"><tspan class="TextPosition" x="973" y="9471"><tspan fill="rgb(0,0,0)" stroke="none" style="white-space: pre">loss</tspan></tspan></tspan></text>
 <text class="SVGTextShape" transform="rotate(-90 28193 9974)"><tspan class="TextParagraph" font-family="Liberation Sans, sans-serif" font-size="459px" font-weight="400"><tspan class="TextPosition" x="28193" y="9974"><tspan fill="rgb(0,0,0)" stroke="none" style="white-space: pre">accuracy</tspan></tspan></tspan></text>
</svg>